<svg width="512" height="512" viewBox="0 0 512 512" fill="none" xmlns="http://www.w3.org/2000/svg">
<path fill-rule="evenodd" clip-rule="evenodd" d="M436.4 456.002H75.6C64.8 456.002 56 447.202 56 436.402V410.602C56 408.202 57.3 405.902 59.5 404.702L189.9 333.502C194.8 330.802 197.9 328.902 199.9 327.502C197.4 326.502 194 325.502 190.7 325.002L115 314.202C112.3 313.802 110.1 311.802 109.5 309.202C108.9 306.602 109.9 303.802 112.1 302.202C154 272.202 156 143.802 156 142.602C156 142.402 156.1 142.302 156.1 142.102C156.1 141.902 156.1 141.702 156.1 141.602C164.6 92.9016 207.6 56.1016 256 56.1016C305.5 56.1016 347.5 90.9016 355.9 138.902C355.9 139.102 355.9 139.302 355.9 139.402C355.9 139.602 356 139.702 356 139.902C356 141.202 358 272.302 399.9 302.202C402.1 303.802 403.1 306.602 402.5 309.202C401.9 311.802 399.7 313.802 397 314.202L321.3 325.302C318 325.802 314.6 326.802 312.1 327.802C314.1 329.202 317.2 331.102 322.1 333.802L452.5 405.002C454.6 406.202 456 408.402 456 410.902V436.702C456 447.202 447.2 456.002 436.4 456.002ZM442.7 414.502L315.7 345.202C302.7 338.102 296 333.302 296 326.702C296 315.502 317 312.202 319.4 311.802L381.5 302.702C345.5 259.402 342.8 151.002 342.7 140.402C335.3 99.0016 298.9 69.0016 256 69.0016C214.1 69.0016 176.9 100.802 169.3 143.102C169.1 153.502 166.5 259.702 130.5 302.702L192.6 311.802C195 312.102 216 315.502 216 326.702C216 333.202 209.1 338.202 196.3 345.202L69.3 414.502V436.302C69.3 439.702 72.1 442.502 75.5 442.502H436.4C439.8 442.502 442.6 439.602 442.6 436.302V414.502H442.7Z" fill="#535353"/>
</svg>
