<svg width="890" height="890" viewBox="0 0 890 890" fill="none" xmlns="http://www.w3.org/2000/svg">
<circle cx="445" cy="445" r="445" fill="white"/>
<path d="M444.667 154C483.211 154 520.178 169.312 547.433 196.567C574.688 223.822 590 260.789 590 299.333C590 337.878 574.688 374.844 547.433 402.1C520.178 429.355 483.211 444.667 444.667 444.667C406.122 444.667 369.156 429.355 341.9 402.1C314.645 374.844 299.333 337.878 299.333 299.333C299.333 260.789 314.645 223.822 341.9 196.567C369.156 169.312 406.122 154 444.667 154ZM444.667 735.333C444.667 735.333 735.333 735.333 735.333 662.667C735.333 575.467 593.633 481 444.667 481C295.7 481 154 575.467 154 662.667C154 735.333 444.667 735.333 444.667 735.333Z" fill="#ADADAD"/>
</svg>
